<svg width="28" height="28" viewBox="0 0 28 28" fill="none" xmlns="http://www.w3.org/2000/svg">
<mask id="path-1-inside-1_0_486" fill="white">
<path d="M25.3413 2.65851C23.1783 0.494011 21.5538 0.818011 21.5538 0.818011L12.4758 9.89601L2.3148 20.0555L0.799805 27.1985L7.9443 25.6835L18.1053 15.527L27.1833 6.44901C27.1818 6.44901 27.5073 4.82451 25.3413 2.65851ZM7.5198 24.8255L5.08381 25.3505C4.81422 24.8331 4.46495 24.3614 4.0488 23.9525C3.63953 23.5364 3.16786 23.1867 2.6508 22.916L3.1758 20.4815L3.8808 19.778C3.8808 19.778 5.20531 19.805 6.7023 21.302C8.1978 22.796 8.22631 24.1235 8.22631 24.1235L7.5198 24.8255Z"/>
</mask>
<path d="M25.3413 2.65851C23.1783 0.494011 21.5538 0.818011 21.5538 0.818011L12.4758 9.89601L2.3148 20.0555L0.799805 27.1985L7.9443 25.6835L18.1053 15.527L27.1833 6.44901C27.1818 6.44901 27.5073 4.82451 25.3413 2.65851ZM7.5198 24.8255L5.08381 25.3505C4.81422 24.8331 4.46495 24.3614 4.0488 23.9525C3.63953 23.5364 3.16786 23.1867 2.6508 22.916L3.1758 20.4815L3.8808 19.778C3.8808 19.778 5.20531 19.805 6.7023 21.302C8.1978 22.796 8.22631 24.1235 8.22631 24.1235L7.5198 24.8255Z" stroke="#E7E7E7" stroke-width="2" mask="url(#path-1-inside-1_0_486)"/>
</svg>
