<svg width="35" height="36" viewBox="0 0 35 36" fill="none" xmlns="http://www.w3.org/2000/svg">
<path d="M16.4558 6.33331H17.3769C17.4587 6.33331 17.4997 6.42405 17.4997 6.60554V30.5611C17.4997 30.7426 17.4587 30.8333 17.3769 30.8333H16.4558C16.3739 30.8333 16.333 30.7426 16.333 30.5611V6.60554C16.333 6.42405 16.3739 6.33331 16.4558 6.33331Z" fill="#E7E7E7"/>
<path d="M4.95188 18H28.8821C29.072 18 29.167 18.0409 29.167 18.1228V19.0439C29.167 19.1257 29.072 19.1667 28.8821 19.1667H4.95188C4.76195 19.1667 4.66699 19.1257 4.66699 19.0439V18.1228C4.66699 18.0409 4.76195 18 4.95188 18Z" fill="#E7E7E7"/>
</svg>
