<svg width="28" height="28" viewBox="0 0 28 28" fill="none" xmlns="http://www.w3.org/2000/svg">
<g clip-path="url(#clip0_0_134)">
<path d="M13.125 4.02896C14.8746 4.02746 16.5853 4.51437 18.0408 5.42811C19.4963 6.34184 20.6311 7.64134 21.3018 9.16222C21.9724 10.6831 22.1487 12.357 21.8084 13.9722C21.468 15.5874 20.6263 17.0713 19.3897 18.2362C18.1532 19.4011 16.5773 20.1946 14.8615 20.5164C13.1456 20.8382 11.367 20.6738 9.75041 20.044C8.13387 19.4142 6.75211 18.3473 5.77993 16.9783C4.80776 15.6092 4.28885 13.9996 4.28885 12.3529C4.29946 10.1497 5.23356 8.03938 6.88813 6.48071C8.54271 4.92203 10.784 4.04095 13.125 4.02896ZM13.125 2.47059C11.0483 2.47059 9.01823 3.05018 7.29152 4.13607C5.5648 5.22195 4.21899 6.76536 3.42427 8.57113C2.62955 10.3769 2.42161 12.3639 2.82676 14.2809C3.2319 16.1979 4.23193 17.9587 5.70038 19.3408C7.16883 20.7229 9.03975 21.6641 11.0766 22.0454C13.1134 22.4267 15.2246 22.231 17.1432 21.483C19.0618 20.7351 20.7017 19.4684 21.8554 17.8433C23.0092 16.2181 23.625 14.3075 23.625 12.3529C23.625 9.73198 22.5188 7.21836 20.5496 5.36506C18.5805 3.51176 15.9098 2.47059 13.125 2.47059Z" fill="#E7E7E7"/>
<path d="M25.5383 24.956L19.8061 19.1849L18.7017 20.2816L24.4339 26.0527C24.5059 26.1252 24.5915 26.1828 24.6858 26.2223C24.78 26.2617 24.8812 26.2822 24.9834 26.2825C25.0856 26.2829 25.1868 26.2631 25.2814 26.2244C25.3759 26.1856 25.4619 26.1286 25.5344 26.0566C25.607 25.9846 25.6646 25.899 25.704 25.8047C25.7435 25.7104 25.764 25.6093 25.7643 25.5071C25.7647 25.4049 25.7449 25.3036 25.7061 25.2091C25.6674 25.1145 25.6103 25.0285 25.5383 24.956Z" fill="#E7E7E7"/>
</g>
<defs>
<clipPath id="clip0_0_134">
<rect width="28" height="28" fill="white"/>
</clipPath>
</defs>
</svg>
